<svg width="199" height="29" viewBox="0 0 199 29" fill="none" xmlns="http://www.w3.org/2000/svg">
<path d="M0.28 28V0.24H2.92L14.68 19.56H12.88L24.64 0.24H27.28V28H23.52V6.84L24.4 7.08L15.12 22.32H12.48L3.2 7.08L4.04 6.84V28H0.28ZM41.8747 28.4C40.008 28.4 38.328 27.96 36.8347 27.08C35.3414 26.2 34.1547 25.0133 33.2747 23.52C32.3947 22 31.9547 20.3067 31.9547 18.44C31.9547 16.6 32.3947 14.9467 33.2747 13.48C34.1547 11.9867 35.3414 10.8 36.8347 9.92C38.328 9.04 40.008 8.6 41.8747 8.6C43.7147 8.6 45.3814 9.04 46.8747 9.92C48.3947 10.7733 49.5947 11.9467 50.4747 13.44C51.3547 14.9333 51.7947 16.6 51.7947 18.44C51.7947 20.3067 51.3547 22 50.4747 23.52C49.5947 25.0133 48.3947 26.2 46.8747 27.08C45.3814 27.96 43.7147 28.4 41.8747 28.4ZM41.8747 24.92C43.0747 24.92 44.1414 24.64 45.0747 24.08C46.008 23.52 46.7414 22.76 47.2747 21.8C47.808 20.8133 48.0747 19.6933 48.0747 18.44C48.0747 17.2133 47.7947 16.12 47.2347 15.16C46.7014 14.2 45.968 13.4533 45.0347 12.92C44.128 12.36 43.0747 12.08 41.8747 12.08C40.6747 12.08 39.608 12.36 38.6747 12.92C37.7414 13.4533 37.008 14.2 36.4747 15.16C35.9414 16.12 35.6747 17.2133 35.6747 18.44C35.6747 19.6933 35.9414 20.8133 36.4747 21.8C37.008 22.76 37.7414 23.52 38.6747 24.08C39.608 24.64 40.6747 24.92 41.8747 24.92ZM61.6288 28L52.9088 9H56.9088L63.9088 25.04H61.5888L68.6288 9H72.4688L63.7488 28H61.6288ZM75.5784 28V9H79.1784V28H75.5784ZM77.3784 5.2C76.7118 5.2 76.1651 4.98666 75.7384 4.56C75.3118 4.10667 75.0984 3.54667 75.0984 2.88C75.0984 2.24 75.3118 1.70667 75.7384 1.28C76.1651 0.826664 76.7118 0.599998 77.3784 0.599998C78.0451 0.599998 78.5918 0.826664 79.0184 1.28C79.4451 1.70667 79.6584 2.24 79.6584 2.88C79.6584 3.54667 79.4451 4.10667 79.0184 4.56C78.5918 4.98666 78.0451 5.2 77.3784 5.2ZM93.2838 28.4C91.3904 28.4 89.6838 27.9733 88.1638 27.12C86.6438 26.24 85.4438 25.0533 84.5638 23.56C83.6838 22.0667 83.2438 20.3733 83.2438 18.48C83.2438 16.6133 83.6704 14.9333 84.5238 13.44C85.4038 11.9467 86.5771 10.7733 88.0438 9.92C89.5371 9.04 91.2038 8.6 93.0438 8.6C94.8038 8.6 96.3504 9 97.6838 9.8C99.0438 10.6 100.097 11.7067 100.844 13.12C101.617 14.5333 102.004 16.1333 102.004 17.92C102.004 18.1867 101.99 18.48 101.964 18.8C101.937 19.0933 101.884 19.44 101.804 19.84H85.7638V16.84H99.8838L98.5638 18C98.5638 16.72 98.3371 15.64 97.8838 14.76C97.4304 13.8533 96.7904 13.16 95.9638 12.68C95.1371 12.1733 94.1371 11.92 92.9638 11.92C91.7371 11.92 90.6571 12.1867 89.7238 12.72C88.7904 13.2533 88.0704 14 87.5638 14.96C87.0571 15.92 86.8038 17.0533 86.8038 18.36C86.8038 19.6933 87.0704 20.8667 87.6038 21.88C88.1371 22.8667 88.8971 23.64 89.8838 24.2C90.8704 24.7333 92.0038 25 93.2838 25C94.3504 25 95.3238 24.8133 96.2038 24.44C97.1104 24.0667 97.8838 23.5067 98.5238 22.76L100.844 25.12C99.9371 26.1867 98.8171 27 97.4838 27.56C96.1771 28.12 94.7771 28.4 93.2838 28.4ZM106.569 28V0.24H109.209L120.969 19.56H119.169L130.929 0.24H133.569V28H129.809V6.84L130.689 7.08L121.409 22.32H118.769L109.489 7.08L110.329 6.84V28H106.569ZM148.164 28.4C146.297 28.4 144.617 27.96 143.124 27.08C141.63 26.2 140.444 25.0133 139.564 23.52C138.684 22 138.244 20.3067 138.244 18.44C138.244 16.6 138.684 14.9467 139.564 13.48C140.444 11.9867 141.63 10.8 143.124 9.92C144.617 9.04 146.297 8.6 148.164 8.6C150.004 8.6 151.67 9.04 153.164 9.92C154.684 10.7733 155.884 11.9467 156.764 13.44C157.644 14.9333 158.084 16.6 158.084 18.44C158.084 20.3067 157.644 22 156.764 23.52C155.884 25.0133 154.684 26.2 153.164 27.08C151.67 27.96 150.004 28.4 148.164 28.4ZM148.164 24.92C149.364 24.92 150.43 24.64 151.364 24.08C152.297 23.52 153.03 22.76 153.564 21.8C154.097 20.8133 154.364 19.6933 154.364 18.44C154.364 17.2133 154.084 16.12 153.524 15.16C152.99 14.2 152.257 13.4533 151.324 12.92C150.417 12.36 149.364 12.08 148.164 12.08C146.964 12.08 145.897 12.36 144.964 12.92C144.03 13.4533 143.297 14.2 142.764 15.16C142.23 16.12 141.964 17.2133 141.964 18.44C141.964 19.6933 142.23 20.8133 142.764 21.8C143.297 22.76 144.03 23.52 144.964 24.08C145.897 24.64 146.964 24.92 148.164 24.92ZM167.918 28L159.198 9H163.198L170.198 25.04H167.878L174.918 9H178.758L170.038 28H167.918ZM189.885 28.4C187.992 28.4 186.285 27.9733 184.765 27.12C183.245 26.24 182.045 25.0533 181.165 23.56C180.285 22.0667 179.845 20.3733 179.845 18.48C179.845 16.6133 180.272 14.9333 181.125 13.44C182.005 11.9467 183.179 10.7733 184.645 9.92C186.139 9.04 187.805 8.6 189.645 8.6C191.405 8.6 192.952 9 194.285 9.8C195.645 10.6 196.699 11.7067 197.445 13.12C198.219 14.5333 198.605 16.1333 198.605 17.92C198.605 18.1867 198.592 18.48 198.565 18.8C198.539 19.0933 198.485 19.44 198.405 19.84H182.365V16.84H196.485L195.165 18C195.165 16.72 194.939 15.64 194.485 14.76C194.032 13.8533 193.392 13.16 192.565 12.68C191.739 12.1733 190.739 11.92 189.565 11.92C188.339 11.92 187.259 12.1867 186.325 12.72C185.392 13.2533 184.672 14 184.165 14.96C183.659 15.92 183.405 17.0533 183.405 18.36C183.405 19.6933 183.672 20.8667 184.205 21.88C184.739 22.8667 185.499 23.64 186.485 24.2C187.472 24.7333 188.605 25 189.885 25C190.952 25 191.925 24.8133 192.805 24.44C193.712 24.0667 194.485 23.5067 195.125 22.76L197.445 25.12C196.539 26.1867 195.419 27 194.085 27.56C192.779 28.12 191.379 28.4 189.885 28.4Z" fill="url(#paint0_linear_6_2)"/>
<defs>
<linearGradient id="paint0_linear_6_2" x1="65.6242" y1="-10.2582" x2="65.6242" y2="-3.80328" gradientUnits="userSpaceOnUse">
<stop stop-color="#02F1BC"/>
<stop offset="1" stop-color="#10AE8B"/>
</linearGradient>
</defs>
</svg>
